<svg xmlns="http://www.w3.org/2000/svg" viewBox="0 0 28.3 28.37"><defs><style>.cls-1{fill:#010101;}.cls-2{fill:#fff;}</style></defs><title>s2</title><g id="Layer_2" data-name="Layer 2"><rect class="cls-1" width="28.3" height="28.37"/></g><g id="Layer_1" data-name="Layer 1"><polygon class="cls-2" points="21.01 5.68 20.83 11.9 16.36 5.63 21.01 5.68"/><path class="cls-2" d="M7.12,22.73v-6l1.54,1.8,1,1.13,1.28,1.49L12.4,22.9Z" transform="translate(-0.01 0.08)"/><path class="cls-2" d="M13,5.42h-.14C11,5.6,6.71,6.2,6.34,10.27c-.45,4.92,4.38,6.19,5.81,6.68s5.1,1.81,4.85,3.46-.86,2.59-5.95,2c-1.59-.18-.09.43-.09.43a24.86,24.86,0,0,0,7.13-.52c2.72-.84,4.11-2.27,4.09-5.21,0-2.77-1.28-4.42-8.68-7-3.15-1.1-2.1-4.3.08-4.22,5.51.19,7.41-.3,7.41-.3Z" transform="translate(-0.01 0.08)"/></g></svg>